<?xml version="1.0" encoding="UTF-8" standalone="no"?>
<!DOCTYPE svg PUBLIC "-//W3C//DTD SVG 1.1//EN" "http://www.w3.org/Graphics/SVG/1.1/DTD/svg11.dtd">
<svg width="100%" height="100%" viewBox="0 0 1000 1000" version="1.1" xmlns="http://www.w3.org/2000/svg" xmlns:xlink="http://www.w3.org/1999/xlink" xml:space="preserve" xmlns:serif="http://www.serif.com/" style="fill-rule:evenodd;clip-rule:evenodd;stroke-linejoin:round;stroke-miterlimit:2;">
    <g transform="matrix(1,0,0,1,-9,15)">
        <g transform="matrix(1.14085,0,0,1.14085,-71.6945,-45.497)">
            <g>
                <path d="M665.477,578.793L736.702,650.018C678.706,715.324 594.124,756.5 500,756.5C330.684,756.5 192.243,623.259 183.898,456L99,456L259,299.921L337.108,376.115C323.302,402.737 315.5,432.964 315.5,465C315.5,571.796 402.204,658.5 509,658.5C573.279,658.5 630.28,627.09 665.477,578.793ZM366.676,333.958L292.693,259.975C349.401,206.379 425.891,173.5 510,173.5C676.862,173.5 813.738,302.907 825.657,466.75L919,466.75L817.314,565.944C817.281,566.077 817.248,566.21 817.215,566.343L817.062,566.189L759,622.829L683.332,549.015C695.613,523.599 702.5,495.098 702.5,465C702.5,358.204 615.796,271.5 509,271.5C452.735,271.5 402.047,295.566 366.676,333.958Z"/>
                <g transform="matrix(1,0,0,1,8,-32)">
                    <circle cx="405" cy="419" r="43"/>
                </g>
                <g transform="matrix(1,0,0,1,104,-4)">
                    <circle cx="405" cy="419" r="43"/>
                </g>
                <g transform="matrix(1,0,0,1,200,-32)">
                    <circle cx="405" cy="419" r="43"/>
                </g>
                <g transform="matrix(1,0,0,0.903882,106,42.7523)">
                    <path d="M340,587.878L340,507.5C340,490.115 354.115,476 371.5,476L434.5,476C451.885,476 466,490.115 466,507.5L466,587.878C449.453,602.381 427.313,611.25 403,611.25C378.687,611.25 356.547,602.381 340,587.878Z"/>
                </g>
                <g transform="matrix(1,0,0,0.903882,202,9.75231)">
                    <path d="M340.232,503.658C342.13,488.082 355.415,476 371.5,476L434.5,476C451.885,476 466,490.115 466,507.5L466,587.878C449.453,602.381 427.313,611.25 403,611.25C394.158,611.25 385.603,610.077 377.5,607.886L377.5,538.908C377.5,519.453 361.705,503.658 342.25,503.658L340.232,503.658Z"/>
                </g>
                <g transform="matrix(1,0,0,0.903882,7.5,9.75231)">
                    <path d="M431,607.174C422.164,609.822 412.757,611.25 403,611.25C378.687,611.25 356.547,602.381 340,587.878L340,507.5C340,490.115 354.115,476 371.5,476L434.5,476C450.586,476 463.872,488.084 465.768,503.662C446.535,503.92 431,519.614 431,538.908L431,607.174Z"/>
                </g>
            </g>
        </g>
    </g>
</svg>
